<?xml version="1.0" standalone="no"?>
<!DOCTYPE svg PUBLIC "-//W3C//DTD SVG 20010904//EN"
 "http://www.w3.org/TR/2001/REC-SVG-20010904/DTD/svg10.dtd">
<svg version="1.0" xmlns="http://www.w3.org/2000/svg"
 width="1190.000000pt" height="1190.000000pt" viewBox="0 0 1190.000000 1190.000000"
 preserveAspectRatio="xMidYMid meet">
<metadata>
Created by potrace 1.11, written by Peter Selinger 2001-2013
</metadata>
<g transform="translate(0.000000,1190.000000) scale(0.100000,-0.100000)"
fill="#000000" stroke="none">
<path d="M5515 11080 c-11 -5 -96 -39 -190 -76 -586 -228 -1087 -556 -1433
-934 -340 -373 -570 -819 -682 -1320 -11 -49 -23 -65 -99 -145 -152 -159 -261
-287 -378 -440 -40 -53 -183 -263 -183 -269 0 -2 -23 -41 -50 -86 -68 -109
-218 -418 -273 -560 -101 -263 -171 -514 -216 -781 -43 -254 -55 -403 -55
-684 0 -270 10 -395 50 -634 l25 -154 -177 -178 -178 -179 39 -40 c21 -22 44
-40 49 -40 6 0 75 64 153 142 78 78 144 140 146 138 5 -6 55 -175 70 -238 l11
-43 -234 -234 -234 -235 39 -40 c21 -22 44 -40 50 -40 5 0 102 92 215 205 112
113 207 205 211 205 3 0 19 -35 34 -77 46 -126 156 -360 241 -509 l23 -40
-355 -389 c-195 -214 -354 -392 -354 -395 0 -3 18 -24 40 -45 30 -30 44 -37
55 -30 12 9 389 420 601 657 38 42 74 77 79 77 6 0 30 -32 55 -72 103 -165
264 -367 439 -550 73 -78 73 -58 0 -168 -76 -114 -108 -257 -89 -397 7 -48 21
-109 32 -136 49 -126 163 -253 280 -312 111 -56 272 -78 389 -53 50 11 51 12
46 43 -3 17 -10 43 -16 58 l-10 26 -98 -5 c-214 -12 -366 75 -458 259 -32 67
-38 89 -43 166 -3 68 -1 102 13 143 23 70 71 162 98 187 l22 20 50 -45 c165
-150 461 -369 623 -462 39 -22 103 -59 141 -81 151 -87 444 -214 658 -285 434
-144 937 -217 1378 -200 649 24 1244 188 1801 496 869 481 1540 1283 1852
2214 125 375 190 734 207 1155 13 302 -33 768 -104 1040 -65 250 -121 433
-141 453 -7 8 -120 -19 -120 -28 0 -2 20 -63 45 -135 24 -72 60 -197 80 -278
200 -816 135 -1656 -187 -2427 -304 -725 -835 -1346 -1524 -1780 -163 -103
-488 -263 -674 -332 -651 -242 -1300 -307 -1980 -197 -189 31 -245 43 -430 96
-506 144 -995 400 -1400 731 -99 81 -160 138 -160 148 0 13 106 48 166 54 33
4 86 2 118 -4 67 -12 187 -64 212 -92 9 -11 24 -19 33 -18 22 1 84 76 78 93
-10 26 -133 97 -212 122 -152 49 -290 40 -436 -27 l-70 -32 -30 29 c-53 50
-223 245 -300 344 -123 158 -243 341 -233 356 5 7 142 158 305 336 162 177
414 454 559 613 144 160 288 317 319 350 31 33 261 285 511 560 250 275 592
651 760 835 168 184 424 466 570 625 145 160 371 408 503 553 153 168 245 261
254 258 7 -3 39 -23 71 -44 122 -83 317 -181 510 -256 238 -93 611 -165 855
-166 l77 0 0 64 0 63 -132 6 c-317 13 -698 112 -983 254 -98 49 -301 169 -310
183 -3 4 122 147 277 317 475 520 660 724 752 825 l87 98 62 -31 c230 -116
526 -315 727 -487 95 -82 276 -254 302 -287 l20 -26 -42 -55 c-140 -185 -208
-385 -217 -634 -4 -123 -2 -161 16 -250 32 -153 92 -304 163 -408 l29 -42 44
30 c24 17 47 35 50 40 4 6 -7 32 -24 58 -128 199 -177 456 -136 707 43 264
202 509 427 661 92 61 193 100 315 121 237 40 500 -46 670 -219 86 -87 127
-147 164 -242 41 -104 51 -262 25 -366 -60 -232 -243 -410 -456 -443 -183 -28
-393 76 -482 240 -96 176 -21 417 157 503 103 50 239 24 323 -61 98 -101 86
-258 -27 -331 -39 -25 -54 -29 -98 -25 -127 9 -187 145 -96 217 31 24 56 25
93 4 27 -17 29 -16 74 16 27 19 45 40 44 49 -2 8 -25 29 -51 45 -93 57 -188
44 -263 -36 -99 -105 -95 -242 10 -344 92 -90 211 -110 324 -54 167 84 234
286 151 457 -30 63 -113 142 -184 177 -169 82 -344 49 -485 -93 -76 -77 -114
-147 -136 -251 -69 -326 214 -641 576 -643 489 -2 819 563 600 1030 -118 253
-380 448 -662 493 -97 16 -302 8 -382 -14 -132 -37 -274 -113 -380 -202 l-39
-33 -141 134 c-277 262 -605 501 -903 655 -35 17 -63 36 -63 41 0 7 404 453
917 1013 51 56 92 106 93 112 0 7 -19 29 -41 49 l-42 38 -41 -44 c-36 -38
-182 -199 -295 -324 -20 -22 -135 -148 -256 -280 -121 -132 -274 -300 -339
-373 -65 -72 -122 -132 -126 -132 -5 0 -55 20 -113 45 -58 25 -108 45 -110 45
-3 0 -21 7 -42 16 l-38 15 42 43 c22 23 41 46 41 52 0 5 -18 28 -40 49 l-40
39 -68 -67 -68 -68 -130 37 c-71 19 -136 38 -143 40 -10 3 74 94 237 257 139
139 252 257 252 263 0 5 -18 28 -40 49 l-40 39 -288 -286 -287 -286 -100 18
c-282 52 -813 73 -1079 42 -86 -11 -111 -11 -117 -1 -4 7 -10 60 -14 118 -4
58 -10 135 -14 171 l-6 65 -54 3 c-33 2 -57 -1 -61 -8 -8 -14 -3 -150 10 -270
6 -47 10 -90 10 -97 0 -6 -30 -16 -67 -23 -38 -6 -112 -21 -165 -34 -54 -13
-99 -21 -102 -19 -4 4 50 141 199 498 113 274 241 582 298 720 25 61 55 131
66 158 21 49 17 55 -24 37z m-201 -247 c-26 -62 -220 -533 -311 -753 -46 -113
-101 -245 -122 -295 -64 -147 -121 -291 -121 -302 0 -6 39 1 98 18 96 28 390
94 445 101 l28 3 39 -150 c133 -524 430 -1004 833 -1351 62 -53 112 -99 112
-103 0 -6 -652 -725 -975 -1076 -66 -72 -483 -531 -601 -661 -55 -61 -364
-400 -1384 -1518 -110 -121 -327 -360 -483 -530 -155 -171 -286 -312 -291
-314 -18 -6 -172 317 -260 543 l-31 79 105 106 c58 58 105 110 105 116 0 5
-18 28 -40 49 l-40 39 -85 -84 c-46 -46 -86 -82 -88 -79 -3 2 -21 66 -42 143
l-37 139 166 166 c91 91 166 171 166 177 0 5 -18 28 -40 49 l-40 39 -139 -138
c-125 -125 -139 -136 -144 -115 -31 131 -57 430 -57 669 0 324 40 641 120 955
173 676 490 1234 993 1752 l119 122 24 103 c57 247 109 396 208 603 270 561
742 1022 1386 1355 62 32 383 179 393 180 4 0 0 -17 -9 -37z m966 -1193 c116
-10 331 -39 339 -46 3 -3 -8 -18 -24 -34 l-29 -30 44 -45 44 -45 62 61 62 61
73 -16 c105 -24 209 -56 209 -64 0 -4 -111 -118 -247 -254 l-247 -248 39 -40
c21 -22 43 -40 49 -40 5 0 130 120 278 268 148 147 271 269 274 271 8 8 304
-113 304 -124 0 -10 -21 -35 -123 -145 -27 -29 -231 -253 -454 -499 -224 -245
-433 -474 -465 -509 l-59 -64 -69 57 c-377 309 -665 737 -816 1215 -36 113
-65 243 -56 252 24 24 593 37 812 18z"/>
<path d="M7330 5655 c-232 -57 -379 -228 -405 -470 -8 -76 14 -185 55 -273 58
-125 203 -239 345 -270 33 -7 287 -12 760 -14 l710 -3 65 26 c171 69 270 170
325 333 27 81 33 202 15 284 -32 136 -150 285 -271 341 -132 62 -118 61 -864
60 -532 0 -692 -4 -735 -14z m1048 -507 l-3 -393 -515 0 -515 0 -67 33 c-84
41 -152 109 -192 192 -28 59 -31 74 -31 165 0 91 3 106 31 165 47 100 135 177
243 211 51 16 104 18 554 18 l497 1 -2 -392z"/>
<path d="M5150 4662 c-233 -62 -391 -267 -390 -507 1 -90 13 -143 55 -230 41
-85 131 -179 213 -223 113 -60 111 -60 877 -64 657 -3 704 -2 760 15 228 70
385 275 385 502 0 125 -58 269 -145 359 -60 63 -114 98 -204 134 l-66 27 -710
2 c-645 2 -716 1 -775 -15z m1070 -507 l0 -395 -487 0 c-546 0 -574 3 -669 66
-96 64 -151 148 -176 268 -30 150 62 335 203 406 90 47 116 49 637 49 l492 1
0 -395z"/>
</g>
</svg>
